# xmcd CD database file
#
# Track frame offsets:
#	150
#	12143
#	21097
#	39489
#	65324
#	88499
#	115407
#	142332
#	163155
#	184099
#	204174
#	218491
#	240828
#	263030
#	289829
#	312556
#	333186
#
# Disc length: 4687 seconds
#
# Revision: 0
# Processed by: cddbd v1.5.2PL0 Copyright (c) Steve Scherf et al.
# Submitted via: CDex 1.70beta1
#
DISCID=f2124d11
DTITLE=Various Artist - this is cowbell music
DYEAR=2005
DGENRE=Jazz
TTITLE0=Koppel-Andersen-Koppel - Puerto Rican Rumble
TTITLE1=Mad Cows Sing - 7 Scenes From Everyday Cowlife
TTITLE2=Alberte Winding - Min Nats Hyacinther
TTITLE3=Koppel-Dominguez-Andersen - Para Chick Para Chock
TTITLE4=Koppel and Brass - Today I Marched
TTITLE5=Benjamin Koppel Quintet - Oscalypso
TTITLE6=Koppel-Gunnarsson-Anderson - Razorbill Relaxin'
TTITLE7=Anders Koppel - The Kiss
TTITLE8=Babop - Soulbop
TTITLE9=Mad Cows Sing - Cow Clash
TTITLE10=Alex Riel Trio - Yesterdays
TTITLE11=Koppel-Andersen-Koppel - Lille Digter Skrone - Jeg Dromte Om En Jord
TTITLE12=Benjamin Koppel Quintet - At Large
TTITLE13=Ache - Obatala
TTITLE14=Koppel-Andersson-Riel - Take the A Train
TTITLE15=Jazz in Space - Have you read the news?
TTITLE16=Sax'n'Drawbars - Chrismas Parade
EXTD=YEAR: 2005
EXTT0=
EXTT1=
EXTT2=
EXTT3=
EXTT4=
EXTT5=
EXTT6=
EXTT7=
EXTT8=
EXTT9=
EXTT10=
EXTT11=
EXTT12=
EXTT13=
EXTT14=
EXTT15=
EXTT16=
PLAYORDER=
